<?xml version="1.0" encoding="UTF-8" standalone="no"?>
<!-- Created with Inkscape (http://www.inkscape.org/) -->

<svg
   xmlns:dc="http://purl.org/dc/elements/1.1/"
   xmlns:cc="http://creativecommons.org/ns#"
   xmlns:rdf="http://www.w3.org/1999/02/22-rdf-syntax-ns#"
   xmlns:svg="http://www.w3.org/2000/svg"
   xmlns="http://www.w3.org/2000/svg"
   xmlns:sodipodi="http://sodipodi.sourceforge.net/DTD/sodipodi-0.dtd"
   xmlns:inkscape="http://www.inkscape.org/namespaces/inkscape"
   id="svg2"
   version="1.1"
   inkscape:version="0.48+devel r12701"
   width="850"
   height="1100"
   viewBox="0 0 850 1100"
   sodipodi:docname="bold_announce_frame_border.svg">
  <title
     id="title4066">bold announce frame</title>
  <metadata
     id="metadata8">
    <rdf:RDF>
      <cc:Work
         rdf:about="">
        <dc:format>image/svg+xml</dc:format>
        <dc:type
           rdf:resource="http://purl.org/dc/dcmitype/StillImage" />
        <dc:title>bold announce frame</dc:title>
        <dc:date>11/13/2013</dc:date>
        <dc:creator>
          <cc:Agent>
            <dc:title>edited by Paul Sherman</dc:title>
          </cc:Agent>
        </dc:creator>
        <dc:rights>
          <cc:Agent>
            <dc:title>PD</dc:title>
          </cc:Agent>
        </dc:rights>
        <dc:publisher>
          <cc:Agent>
            <dc:title>WPClipart</dc:title>
          </cc:Agent>
        </dc:publisher>
        <dc:subject>
          <rdf:Bag>
            <rdf:li>bold</rdf:li>
            <rdf:li>announce</rdf:li>
            <rdf:li>bubble</rdf:li>
            <rdf:li>frame</rdf:li>
            <rdf:li>border</rdf:li>
          </rdf:Bag>
        </dc:subject>
        <cc:license
           rdf:resource="http://creativecommons.org/publicdomain/zero/1.0/" />
      </cc:Work>
      <cc:License
         rdf:about="http://creativecommons.org/publicdomain/zero/1.0/">
        <cc:permits
           rdf:resource="http://creativecommons.org/ns#Reproduction" />
        <cc:permits
           rdf:resource="http://creativecommons.org/ns#Distribution" />
        <cc:permits
           rdf:resource="http://creativecommons.org/ns#DerivativeWorks" />
      </cc:License>
    </rdf:RDF>
  </metadata>
  <defs
     id="defs6" />
  <sodipodi:namedview
     pagecolor="#ffffff"
     bordercolor="#666666"
     borderopacity="1"
     objecttolerance="10"
     gridtolerance="10"
     guidetolerance="10"
     inkscape:pageopacity="0"
     inkscape:pageshadow="2"
     inkscape:window-width="1166"
     inkscape:window-height="999"
     id="namedview4"
     showgrid="false"
     fit-margin-top="0"
     fit-margin-left="0"
     fit-margin-right="0"
     fit-margin-bottom="0"
     inkscape:zoom="0.51534363"
     inkscape:cx="372.33173"
     inkscape:cy="549.95857"
     inkscape:window-x="511"
     inkscape:window-y="-3"
     inkscape:window-maximized="0"
     inkscape:current-layer="svg2" />
  <rect
     style="fill:#ffffff;fill-opacity:1;stroke:none"
     id="rect4060"
     width="884.8465"
     height="1129.3435"
     x="-13.58317"
     y="-9.9390125" />
  <path
     style="fill:#000000"
     d="m 113.59017,1098.7931 c -4.4144,-1.9206 -9.68366,-8.5322 -14.285204,-17.9249 -3.75712,-7.6689 -8.18216,-19.4107 -8.18216,-21.7112 0,-0.5657 -0.68803,-2.6735 -1.52897,-4.6839 l -1.52897,-3.6554 -3.25836,4.9379 c -18.37272,27.8435 -34.55934,40.5467 -51.83026,40.6763 -8.84589,0.066 -13.02907,-1.5028 -17.80576,-6.6794 -6.5150401,-7.0604 -8.5921501,-15.4307 -8.5763001,-34.5607 0.0133,-16.1016 0.83254,-21.1167 5.6372501,-34.5108 3.08023,-8.5868 10.6455,-22.93585 16.08559,-30.50955 9.04348,-12.5904 11.84258,-17.0228 11.30195,-17.8966 -0.30032,-0.4854 -2.2219,-1.1966 -4.27016,-1.5805 -5.65435,-1.0596 -15.42621,-5.8032 -19.72931,-9.5774 -10.6778101,-9.3652 -15.14915015,-26.9916 -11.0162701,-43.4271 1.6213,-6.4475 3.43251,-9.5025 13.4733001,-22.7253 6.9027,-9.0903 11.96181,-17.3375 11.96181,-19.4998 0,-2.0627 -3.54889,-6.7294 -12.52583,-16.47139 -7.11037,-7.71626 -9.2956601,-11.79418 -12.9157001,-24.10165 -1.49027,-5.06671 -1.81099,-16.57409 -2.76014,-99.03116 -0.59067,-51.31407 -1.27416005,-163.52037 -1.51888005,-249.34734 -0.36931,-129.52369 -0.18284,-162.25527 1.09700005,-192.5605 l 1.54194,-36.51147 2.77592,-5.07901 c 1.52676,-2.79346 4.5784101,-7.87256 6.7814601,-11.28689 13.16303,-20.40037 12.67161,-19.45642 12.17783,-23.39184 -0.32044,-2.554 -3.23031,-7.85558 -9.14239,-16.65683 -5.32832,-7.9322 -9.2685701,-14.97338 -10.2185801,-18.26049 -1.07021,-3.70301 -1.6872,-11.5092 -2.00413,-25.35637 l -0.4579,-20.00628 7.3260501,-5.16347 c 4.02932,-2.83992 10.81163,-7.0392 15.07178,-9.33173 l 7.74574,-4.16824 -4.30966,-6.17316 C 19.695286,99.664496 9.9365559,81.381406 5.5967759,69.277436 2.6290459,61.000226 0.00441585,46.579336 5.8541822e-6,38.526366 -0.00599415,27.949216 4.6004859,16.526726 12.008806,8.7472957 c 4.19605,-4.40625 4.7918,-4.48793 21.1416,-2.89849 11.67293,1.13478 18.93493,3.71635 26.87121,9.5524603 7.69549,5.65905 20.73515,21.94847 26.39587,32.97429 l 1.5407,3.00094 1.15721,-3.00094 c 0.63646,-1.65052 1.58982,-5.47672 2.11858,-8.50267 3.32828,-19.04703 9.276324,-32.5918003 15.910994,-36.2322303 2.78293,-1.52699 4.7424,-1.81064 9.51315,-1.37713 13.08149,1.1887 19.67917,4.98059 28.28276,16.2549703 7.29139,9.55483 15.13993,18.35344 16.37166,18.35344 0.49971,0 0.90858,-0.47152 0.90858,-1.04783 0,-0.57631 2.19699,-5.70046 4.88219,-11.387 l 4.88219,-10.33917 8.88685,-5.8684203 8.88685,-5.86842 236.64591,-0.25628 236.64591,-0.25629 8.55849,4.7577 c 9.80314,5.4496103 14.84617,10.9963703 20.80902,22.8875503 2.027,4.04223 4.01234,7.55133 4.41188,7.79799 1.24237,0.76701 2.52995,-0.72417 5.54488,-6.42171 7.20515,-13.6161 15.95341,-23.8851203 23.12469,-27.1445903 4.71059,-2.14105 7.0266,-2.2669 13.18953,-0.71672 5.68264,1.42938 9.98898,5.60899 14.99828,14.5568803 3.81555,6.81556 10.3655,24.86626 10.3655,28.56582 0,3.25823 2.12725,0.72242 9.12428,-10.87668 5.03979,-8.35457 8.55402,-12.68097 16.56211,-20.38983 11.67255,-11.2364303 16.89753,-13.8528803 29.38976,-14.7172803 9.36263,-0.64785 14.95941,0.80557 19.12485,4.96651 6.11493,6.1084403 6.86469,9.2537203 6.8892,28.9009203 0.0385,30.73882 -2.8674,46.22634 -10.81271,57.63262 -1.4762,2.11924 -5.56161,8.10463 -9.07871,13.300874 -3.51702,5.19624 -7.25019,10.39347 -8.29579,11.5494 -1.89638,2.09635 -1.88901,2.1062 2.88983,3.88146 8.82204,3.27725 18.26134,8.72566 21.69536,12.52267 2.78586,3.08029 3.62598,5.0987 4.63441,11.13408 0.6775,4.05446 1.90768,8.69131 2.73378,10.3041 1.127,2.20011 1.33481,4.57313 0.83235,9.50299 -1.50183,14.73519 -5.53181,23.08687 -21.92816,45.44399 -4.69761,6.40537 -4.9047,6.93039 -3.10373,7.86858 1.06131,0.55289 5.56433,4.69182 10.00656,9.1976 6.20818,6.29697 8.35891,9.22086 9.29597,12.63788 0.94819,3.45787 1.15608,71.33862 0.93553,305.54011 -0.26628,282.85383 -0.38829,301.32619 -2.01462,304.91724 -2.06181,4.55263 -11.93154,14.59417 -20.29927,20.65277 -3.30457,2.3926 -6.15467,4.4627 -6.33364,4.6002 -0.17888,0.1375 3.87672,4.4551 9.01246,9.5947 10.42153,10.4294 15.82116,18.7709 18.99907,29.3511 1.82933,6.0902 2.03914,8.761 1.61119,20.5064 -0.55492,15.2282 -1.64932,18.9463 -6.94336,23.5896 -3.93031,3.4471 -13.99166,9.1801 -21.09853,12.0218 -2.6141,1.0452 -4.7545,2.2108 -4.75658,2.5903 0,0.3794 2.69997,5.0205 6.00454,10.3135 3.30457,5.2931 6.00831,9.7784 6.00831,9.9674 0,0.1891 1.47724,2.9753 3.2827,6.1916 8.36108,14.89465 13.09523,28.20645 15.24252,42.85955 1.88308,12.8508 1.87042,19.3484 -0.0577,29.5014 -2.21394,11.6584 -5.37495,18.2741 -10.28094,21.5173 -7.17945,4.7461 -21.42298,4.9791 -30.22291,0.4945 -10.69218,-5.4489 -24.38292,-21.4978 -34.55738,-40.5098 -4.57786,-8.5542 -4.11541,-8.0585 -6.03471,-6.4673 -2.69925,2.2377 -4.36147,6.4398 -6.58835,16.6549 -2.42198,11.1103 -3.36458,13.2637 -9.4811,21.6605 -5.34079,7.3321 -8.69536,9.6498 -13.97892,9.6583 -3.46984,0.011 -5.5103,-1.0621 -14.15647,-7.4091 -9.69568,-7.1173 -10.27784,-7.7615 -14.46453,-16.005 -2.39923,-4.7241 -4.59066,-8.5837 -4.86984,-8.5769 -0.84397,0.021 -5.01382,6.869 -5.01382,8.2345 0,1.3798 -6.51755,11.5737 -10.22481,15.9923 -1.26087,1.5028 -6.12279,4.991 -10.80426,7.7517 l -8.51177,5.0192 -238.36771,8e-4 -238.3677,8e-4 -4.22452,-2.2507 c -12.41139,-6.6125 -14.95186,-8.6056 -18.12334,-14.2192 -1.73995,-3.0798 -4.32724,-9.2991 -5.74953,-13.8209 -1.4223,-4.5218 -2.76704,-8.4135 -2.9883,-8.6484 -0.64556,-0.6854 -2.92044,2.6788 -10.09685,14.9316 -11.86213,20.2533 -22.70988,28.0312 -32.9074,23.595 z m 709.54281,-17.0918 c 1.59645,-0.8248 4.08076,-3.0424 5.52067,-4.9283 3.65594,-4.7881 6.84491,-22.0167 6.12375,-33.0848 -1.19085,-18.2779 -4.69233,-27.5192 -21.60387,-57.01785 -4.41579,-7.7024 -8.03655,-15.1574 -8.04609,-16.5666 -0.0248,-3.6662 2.85427,-6.2597 9.72882,-8.7636 4.75681,-1.7325 7.05006,-3.3777 11.06001,-7.9339 10.00135,-11.3639 9.23533,-9.1077 9.23533,-27.2025 0,-19.8766 -0.3347,-20.6982 -13.88776,-34.0905 -9.90915,-9.7918 -13.14963,-13.8232 -13.14963,-16.3593 0,-0.7989 4.84422,-6.0099 10.76489,-11.5801 l 10.76488,-10.12764 0.25516,-309.59504 0.25507,-309.59504 -5.53037,-5.3936 c -5.53165,-5.39481 -9.43657,-12.08715 -9.4779,-16.24341 -0.012,-1.21491 4.4842,-9.58587 9.99181,-18.60214 l 10.01385,-16.39323 0,-17.62443 0,-17.62445 -2.99014,-3.40196 c -1.64459,-1.87108 -6.48881,-5.0976 -10.76488,-7.17006 -11.22729,-5.44139 -13.28237,-7.08336 -13.28237,-10.61215 0,-4.1813 3.45454,-10.48519 9.18871,-16.76749 6.55162,-7.177984 13.57533,-21.708234 15.39064,-31.839264 0.76898,-4.29168 1.68785,-12.07939 2.04194,-17.30603 1.08815,-16.06216 -3.51029,-28.52926 -12.45882,-33.77807 -4.17354,-2.44802 -5.80731,-2.76422 -15.9652,-3.08988 -9.64635,-0.30927 -11.59775,-0.10798 -13.2263,1.36426 -1.05074,0.94989 -8.54934,11.84451 -16.66356,24.21027 l -14.75315,22.48322 -1.73175,-6.31963 c -0.95247,-3.4758 -2.02326,-8.2614 -2.37953,-10.63467 -1.7692,-11.78525 -9.00558,-25.46086 -15.36036,-29.02862 -4.83,-2.71171 -15.28591,-3.04304 -20.9849,-0.66498 -6.23304,2.60091 -9.10656,6.35041 -16.24988,21.20362 -3.77047,7.83996 -7.22592,14.24758 -7.67881,14.23916 -2.99244,-0.0557 -6.89692,-6.98731 -8.29209,-14.72096 -1.24424,-6.89703 -3.35698,-12.13686 -6.86924,-17.03649 l -2.32131,-3.23823 -248.72877,0 c -190.98363,0 -249.33957,0.27799 -251.35968,1.19743 -1.44699,0.65859 -3.50072,2.79676 -4.56383,4.7515 -1.06312,1.95473 -2.37676,4.22926 -2.91921,5.05452 -0.54244,0.82526 -1.94071,4.13884 -3.10728,7.36352 -2.50469,6.92365 -6.83448,12.26574 -9.20496,11.35708 -0.88867,-0.34065 -2.81405,-2.55397 -4.27861,-4.91849 -4.12003,-6.65174 -9.15787,-11.47928 -18.74064,-17.95835 -9.84037,-6.65324 -14.9106,-7.95761 -22.74296,-5.85083 -8.94037,2.40481 -12.14812,7.85492 -16.616334,28.23187 -1.62718,7.42064 -4.48979,13.78526 -6.20018,13.78526 -0.44852,0 -3.13343,-3.4886 -5.96647,-7.75244 -17.01668,-25.61077 -26.02664,-31.76768 -46.32087,-31.65316 -10.64375,0.0601 -17.6111,2.30742 -20.41736,6.58574 -2.28226,3.47944 -3.57512,14.41605 -3.58415,30.31907 -0.0125,21.99593 2.21741,27.71777 16.55368,42.476204 9.31227,9.58648 13.391,16.0143 13.43415,21.17136 0.0296,3.54155 -1.2193,4.32572 -9.97999,6.26619 -10.94952,2.42529 -15.09545,4.79227 -20.55668,11.73611 l -4.7729201,6.06866 0.5489101,12.15834 c 0.55484,12.28984 2.42667,22.69806 5.56939,30.96839 1.47726,3.88756 4.54125,8.22984 13.50795,19.14352 4.49536,5.47147 3.94438,15.95612 -1.01383,19.29232 -1.44898,0.97497 -4.36334,3.40773 -6.47637,5.40615 l -3.84185,3.6335 0,303.2481 c 0,284.71176 0.10496,303.41411 1.71714,305.96379 2.68145,4.2407 12.71595,16.35428 16.70604,20.16728 6.09063,5.8205 4.92181,11.7614 -4.2384,21.5432 -9.9747,10.6516 -14.18478,23.0143 -14.18478,41.6531 0,13.0292 1.28884,17.9073 6.01724,22.7743 4.13031,4.2515 13.58505,10.1581 19.24902,12.0254 1.97824,0.6521 3.86635,1.8875 4.19582,2.7451 0.35227,0.9171 -1.34077,4.7088 -4.10995,9.2046 -19.50226,31.66225 -21.36457,35.35455 -23.89631,47.37715 -2.54227,12.0726 -1.08574,33.6446 2.78811,41.2934 4.21709,8.3264 16.09493,12.2419 29.0111,9.5634 7.68096,-1.5929 11.38438,-4.3677 16.1015,-12.0642 2.19178,-3.5761 5.26412,-8.5277 6.82742,-11.0035 2.65897,-4.2109 4.45475,-7.2106 11.57599,-19.3365 1.56072,-2.6575 3.53432,-5.7442 4.38577,-6.8592 1.54065,-2.0176 1.56316,-2.0147 4.68113,0.6061 3.06342,2.5749 6.078614,10.1524 7.794294,19.5877 1.01875,5.6026 4.61855,16.0879 6.7792,19.7459 2.62921,4.4516 10.35872,10.265 13.63871,10.258 8.42001,-0.018 16.12601,-5.5259 23.04728,-16.4733 4.15406,-6.5705 5.4441,-7.5287 10.13569,-7.5287 3.35162,0 6.78995,3.9361 9.60368,10.994 3.14097,7.8786 6.35518,12.7577 9.1644,13.9114 1.99792,0.8203 70.02967,1.0517 253.50656,0.8619 l 250.77579,-0.2593 4.12065,-6.015 c 3.89712,-5.6886 6.61963,-14.6183 7.77291,-25.4949 0.62102,-5.8568 8.31331,-1.7067 12.72956,6.8677 7.09332,13.7723 20.08446,22.636 29.40749,20.0645 5.7708,-1.5916 13.61969,-10.8425 18.22605,-21.4814 2.43229,-5.6177 5.45538,-17.3639 5.47559,-21.2753 0.0148,-2.8569 0.32808,-3.2759 2.2441,-3.001 1.5618,0.2243 3.43112,2.4196 6.25866,7.3503 10.28773,17.9401 19.55263,29.3259 30.39939,37.3582 11.87352,8.7928 20.34948,11.1697 27.2044,7.6287 z"
     id="path4064"
     inkscape:connector-curvature="0" />
</svg>
